<svg xmlns="http://www.w3.org/2000/svg" viewBox="0 0 200 200" width="200" height="200">
<defs>
<linearGradient id="g_dragon" x1="0" y1="0" x2="1" y2="1"><stop offset="0%" stop-color="#fb7185"/><stop offset="50%" stop-color="#7f1d1d"/><stop offset="100%" stop-color="#f59e0b"/></linearGradient>
<radialGradient id="g_dragon_glow" cx="0.5" cy="0.5" r="0.5">
  <stop offset="60%" stop-color="#fca5a5" stop-opacity="0"/>
  <stop offset="100%" stop-color="#fca5a5" stop-opacity="0.55"/>
</radialGradient>
<filter id="g_dragon_shadow" x="-20%" y="-20%" width="140%" height="140%">
  <feGaussianBlur in="SourceAlpha" stdDeviation="3"/>
  <feOffset dx="0" dy="2"/>
  <feComponentTransfer><feFuncA type="linear" slope="0.7"/></feComponentTransfer>
  <feMerge><feMergeNode/><feMergeNode in="SourceGraphic"/></feMerge>
</filter>
</defs>
<circle cx="100" cy="100" r="96" fill="none" stroke="url(#g_dragon)" stroke-width="8" filter="url(#g_dragon_shadow)"/>
<circle cx="100" cy="100" r="86" fill="none" stroke="#fca5a5" stroke-width="2" opacity="0.9"/>
<circle cx="100" cy="100" r="78" fill="none" stroke="url(#g_dragon)" stroke-width="3" opacity="0.85"/>
<circle cx="100" cy="100" r="98" fill="url(#g_dragon_glow)"/>
<line x1="196.0" y1="100.0" x2="210.0" y2="100.0" stroke="#fca5a5" stroke-width="3" stroke-linecap="round"/>
<line x1="183.1" y1="148.0" x2="195.3" y2="155.0" stroke="#fca5a5" stroke-width="3" stroke-linecap="round"/>
<line x1="148.0" y1="183.1" x2="155.0" y2="195.3" stroke="#fca5a5" stroke-width="3" stroke-linecap="round"/>
<line x1="100.0" y1="196.0" x2="100.0" y2="210.0" stroke="#fca5a5" stroke-width="3" stroke-linecap="round"/>
<line x1="52.0" y1="183.1" x2="45.0" y2="195.3" stroke="#fca5a5" stroke-width="3" stroke-linecap="round"/>
<line x1="16.9" y1="148.0" x2="4.7" y2="155.0" stroke="#fca5a5" stroke-width="3" stroke-linecap="round"/>
<line x1="4.0" y1="100.0" x2="-10.0" y2="100.0" stroke="#fca5a5" stroke-width="3" stroke-linecap="round"/>
<line x1="16.9" y1="52.0" x2="4.7" y2="45.0" stroke="#fca5a5" stroke-width="3" stroke-linecap="round"/>
<line x1="52.0" y1="16.9" x2="45.0" y2="4.7" stroke="#fca5a5" stroke-width="3" stroke-linecap="round"/>
<line x1="100.0" y1="4.0" x2="100.0" y2="-10.0" stroke="#fca5a5" stroke-width="3" stroke-linecap="round"/>
<line x1="148.0" y1="16.9" x2="155.0" y2="4.7" stroke="#fca5a5" stroke-width="3" stroke-linecap="round"/>
<line x1="183.1" y1="52.0" x2="195.3" y2="45.0" stroke="#fca5a5" stroke-width="3" stroke-linecap="round"/>
</svg>